<?xml version="1.0" standalone="no"?>
<!DOCTYPE svg PUBLIC "-//W3C//DTD SVG 20010904//EN"
 "http://www.w3.org/TR/2001/REC-SVG-20010904/DTD/svg10.dtd">
<svg version="1.0" xmlns="http://www.w3.org/2000/svg"
 width="1532.000000pt" height="704.000000pt" viewBox="0 0 1532.000000 704.000000"
 preserveAspectRatio="xMidYMid meet">

<g transform="translate(0.000000,704.000000) scale(0.100000,-0.100000)"
fill="#000000" stroke="none">
<path d="M0 3520 l0 -3520 7660 0 7660 0 0 3520 0 3520 -7660 0 -7660 0 0
-3520z m4215 2251 c49 -22 109 -86 124 -134 9 -26 12 -584 14 -2209 l2 -2173
-220 -3 c-121 -1 -229 0 -240 2 -19 5 -20 12 -18 268 2 145 4 440 5 656 l3
392 -831 0 -831 0 -41 -137 c-107 -358 -172 -681 -214 -1053 -14 -130 -15
-624 -1 -737 l9 -72 -219 -203 c-121 -112 -223 -204 -227 -206 -7 -3 -9 11
-36 273 -30 294 -22 716 22 1070 31 255 101 602 165 824 29 101 34 148 11 105
-10 -20 -72 -108 -251 -360 -46 -66 -138 -195 -204 -289 -66 -93 -132 -186
-147 -205 -14 -19 -50 -69 -78 -110 -29 -41 -68 -97 -87 -125 l-35 -50 0 2248
0 2247 1643 0 c1567 0 1644 -1 1682 -19z m5826 -8 c-12 -16 -252 -262 -535
-548 l-514 -519 76 -81 c209 -222 354 -544 392 -877 18 -150 8 -433 -20 -561
-97 -453 -371 -821 -782 -1051 -149 -83 -381 -157 -604 -192 -94 -15 -214 -18
-851 -21 l-743 -4 0 103 -1 103 -424 -430 -424 -430 -1 2268 0 2267 2226 0
2225 0 -20 -27z m4133 -657 c-22 -25 -104 -114 -184 -200 l-145 -155 -942 -1
-943 0 0 -520 0 -520 816 0 c449 0 814 -4 812 -8 -1 -4 -73 -94 -158 -200
l-155 -192 -657 0 -658 0 0 -1030 0 -1030 -285 0 -285 0 0 1950 0 1950 1411 0
1411 0 -38 -44z"/>
<path d="M3906 5695 c-11 -8 -15 -15 -9 -15 6 0 16 7 23 15 16 19 11 19 -14 0z"/>
<path d="M3853 5663 c4 -3 1 -13 -5 -22 -8 -10 -4 -9 10 3 26 23 27 26 5 26
-9 0 -13 -3 -10 -7z"/>
<path d="M3585 5470 c3 -5 8 -10 11 -10 2 0 4 5 4 10 0 6 -5 10 -11 10 -5 0
-7 -4 -4 -10z"/>
<path d="M3599 5433 c-13 -16 -12 -17 4 -4 16 13 21 21 13 21 -2 0 -10 -8 -17
-17z"/>
<path d="M3460 5350 c0 -5 5 -10 11 -10 5 0 7 5 4 10 -3 6 -8 10 -11 10 -2 0
-4 -4 -4 -10z"/>
<path d="M3405 5290 c-3 -5 -1 -10 4 -10 6 0 11 5 11 10 0 6 -2 10 -4 10 -3 0
-8 -4 -11 -10z"/>
<path d="M3787 5008 c-411 -364 -791 -830 -1064 -1303 -139 -240 -353 -680
-353 -724 0 -13 858 -15 1270 -4 l245 6 4 1054 c2 579 1 1053 -3 1053 -3 0
-48 -37 -99 -82z"/>
<path d="M3099 4943 c-13 -16 -12 -17 4 -4 16 13 21 21 13 21 -2 0 -10 -8 -17
-17z"/>
<path d="M2810 4651 c0 -6 5 -13 10 -16 8 -5 7 -12 -2 -23 -11 -15 -11 -15 3
-4 10 7 15 21 12 32 -5 20 -23 28 -23 11z"/>
<path d="M2739 4513 c-13 -16 -12 -17 4 -4 9 7 17 15 17 17 0 8 -8 3 -21 -13z"/>
<path d="M2587 4329 c7 -7 15 -10 18 -7 3 3 -2 9 -12 12 -14 6 -15 5 -6 -5z"/>
<path d="M2525 4210 c-4 -6 -12 -7 -18 -4 -7 4 -9 4 -5 -1 4 -4 3 -16 -3 -26
-15 -29 -3 -22 21 11 12 17 19 30 16 30 -3 0 -8 -5 -11 -10z"/>
<path d="M2370 4012 c0 -4 4 -13 9 -20 7 -11 9 -11 14 1 3 9 -1 18 -9 21 -8 3
-14 2 -14 -2z"/>
<path d="M2247 3806 c-3 -8 0 -17 7 -19 10 -4 12 1 9 14 -6 23 -9 24 -16 5z"/>
<path d="M2180 3686 c0 -8 7 -16 15 -20 13 -4 14 -2 5 14 -13 23 -20 26 -20 6z"/>
<path d="M2111 3550 c0 -14 4 -32 9 -40 8 -12 10 -12 9 5 0 11 -4 29 -9 40 -8
18 -9 18 -9 -5z"/>
<path d="M2050 3420 c0 -5 5 -10 10 -10 6 0 10 5 10 10 0 6 -4 10 -10 10 -5 0
-10 -4 -10 -10z"/>
<path d="M1992 3290 c0 -14 2 -19 5 -12 2 6 2 18 0 25 -3 6 -5 1 -5 -13z"/>
<path d="M1930 3111 c0 -25 6 -27 13 -6 4 8 2 17 -3 20 -6 4 -10 -3 -10 -14z"/>
<path d="M1890 3002 c0 -9 -96 -13 -367 -14 l-368 -3 364 -2 c343 -3 401 1
378 24 -4 3 -7 1 -7 -5z"/>
<path d="M1090 2909 c0 -5 5 -7 10 -4 6 3 10 8 10 11 0 2 -4 4 -10 4 -5 0 -10
-5 -10 -11z"/>
<path d="M1069 2873 c-13 -16 -12 -17 4 -4 9 7 17 15 17 17 0 8 -8 3 -21 -13z"/>
<path d="M962 2763 c-5 -10 -7 -24 -5 -31 3 -7 1 -12 -4 -11 -27 5 -35 -2 -29
-25 4 -15 1 -26 -7 -29 -7 -3 -4 -6 7 -6 15 -1 17 4 12 24 -4 14 -2 25 4 25 5
0 10 -6 10 -12 1 -13 23 12 41 45 7 13 6 17 -3 15 -7 -2 -12 3 -10 10 3 18 -6
15 -16 -5z"/>
<path d="M1010 2561 c52 -4 225 -7 384 -8 220 -2 292 -6 298 -15 5 -9 8 -6 8
10 l0 22 -392 -2 c-216 -1 -350 -4 -298 -7z"/>
<path d="M1718 2532 c4 -19 2 -23 -8 -17 -9 6 -11 4 -5 -4 8 -15 20 -5 29 25
4 14 2 21 -7 21 -9 0 -12 -9 -9 -25z"/>
<path d="M1688 2489 c10 -13 9 -19 -3 -29 -8 -7 -15 -16 -15 -21 0 -4 12 3 26
18 14 14 23 28 20 31 -3 3 -6 2 -6 -3 0 -4 -8 -1 -17 6 -16 12 -17 12 -5 -2z"/>
<path d="M6450 3631 c0 -825 4 -1502 8 -1505 4 -2 158 150 342 340 l335 344 3
-126 3 -125 -107 -112 -106 -112 443 -3 c484 -3 572 4 747 54 112 33 289 119
373 183 229 174 387 451 430 753 17 120 15 326 -5 438 -33 185 -112 373 -219
515 l-50 67 -551 -558 c-302 -308 -641 -651 -753 -764 l-203 -205 0 815 0 815
-338 343 c-185 188 -340 343 -345 342 -4 0 -7 -675 -7 -1499z"/>
</g>
</svg>
